<?xml version="1.0" encoding="utf-8"?>
<!-- Generator: Adobe Illustrator 23.0.2, SVG Export Plug-In . SVG Version: 6.00 Build 0)  -->
<svg version="1.1" id="Ebene_1" xmlns="http://www.w3.org/2000/svg" xmlns:xlink="http://www.w3.org/1999/xlink" x="0px" y="0px"
	 viewBox="0 0 640 480" style="enable-background:new 0 0 640 480;" xml:space="preserve">
<style type="text/css">
	.st0{fill:#FFFFFF;}
</style>
<path d="M173.01,176.01c1.82,2.85,3.51,5.41,5.13,8.02c3.78,6.07,7.55,12.15,11.28,18.25c0.46,0.76,0.96,1.07,1.88,1.13
	c3.11,0.2,6.21,0.51,9.31,0.84c0.75,0.08,1.05-0.11,1.06-0.84c0.02-1.6,0.11-3.2,0.01-4.79c-0.02-0.37-0.7-0.7-1.25-1.2
	c2.33-3.51,5.26-6.67,8.46-9.72c2.83,3.25,5.59,6.42,8.61,9.88c-2.18,0.29-1.83,1.63-1.82,2.79c0.01,1.76,0.08,3.51,0.05,5.27
	c-0.02,0.94,0.42,1.36,1.26,1.58c0.93,0.24,1.82,0.63,2.75,0.82c1.2,0.25,1.69,0.9,1.56,2.1c-0.05,0.47-0.01,0.95-0.01,1.36
	c-2.95-0.58-5.83-1.24-8.74-1.7c-7.14-1.13-14.33-1.15-21.53-0.79c-12.56,0.64-24.94,2.61-37.25,5.09
	c-0.38,0.08-0.77,0.12-1.33,0.21c-0.07-1.63-0.16-3.17-0.19-4.72c-0.02-0.96,0.11-1.92,0.05-2.87c-0.08-1.21-0.02-2.15,1.62-2.01
	c0.27,0.02,0.7-0.56,0.9-0.95c2.67-5.32,5.32-10.65,7.97-15.97c0.21-0.42,0.44-0.84,0.75-1.43c1.33,0.77,2.59,1.51,4.04,2.35
	C169.37,184.55,171.13,180.42,173.01,176.01z M173.38,179.51c-1.14,2.86-2.2,5.39-3.1,7.98c-0.13,0.38,0.42,1.1,0.81,1.51
	c0.17,0.18,0.76,0.03,1.13-0.09c0.33-0.11,0.63-0.34,0.91-0.57c0.77-0.62,1.42-0.66,2.09,0.19c0.68,0.86,1.5,0.96,2.36,0.17
	c0.28-0.26,0.65-0.42,1.05-0.67c-0.5-0.86-0.95-1.7-1.45-2.51C176.01,183.64,174.81,181.76,173.38,179.51z M205.97,203.49
	c1.76,0,3.35,0,5.19,0c0-1.29,0.04-2.51-0.03-3.72c-0.02-0.29-0.41-0.79-0.64-0.8c-1.46-0.07-2.93-0.04-4.51-0.04
	C205.97,200.59,205.97,202,205.97,203.49z M208.95,192.76c-1.21,0.01-1.93,0.63-1.9,1.46c0.03,0.99,0.77,1.83,1.56,1.78
	c0.81-0.04,1.46-0.9,1.44-1.89C210.03,193.25,209.62,192.78,208.95,192.76z"/>
<path d="M339.48,209.06c-0.44,1.36-0.8,2.47-1.18,3.58c-0.09,0.26-0.25,0.5-0.35,0.76c-0.86,2.05-0.43,2.82,1.78,3.26
	c1.05,0.21,2.26,0.13,2.75,1.47c-1.73,0.06-3.75-1.6-4.97,1.05c-2.64-1.64-5.34,0.09-8.06,0.06c-0.03-0.1-0.06-0.2-0.09-0.31
	c1.15-0.3,2.3-0.6,3.45-0.9c-0.01-0.05-0.01-0.1-0.02-0.15c-0.42-0.05-0.84-0.11-1.26-0.16c0.01-0.09,0.01-0.19,0.02-0.28
	c0.43,0.03,0.87,0.07,1.3,0.07c2.01,0.01,3.31-1.2,3.46-3.2c0.19-2.49-1.03-4.83-3.07-5.71c-0.57,1.39-1.2,2.75-1.7,4.17
	c-0.73,2.07-0.24,3,1.86,3.74c-0.1,0.09-0.21,0.23-0.26,0.22c-1.28-0.41-2.33-0.14-3.15,0.95c-0.12,0.16-0.39,0.26-0.6,0.28
	c-1.37,0.15-2.74,0.27-4.11,0.4c-0.95,0.09-1.9,0.18-3.07,0.29c0.95-1.38,1.91-1.99,3.28-2.11c1.07-0.09,2.47-0.19,3.08-0.87
	c1.12-1.23,1.39-3.02,0.84-4.65c-1.08-3.17-2.86-5.92-5.37-8.21c-2.02-1.85-3.93-3.83-5.77-5.86c-0.7-0.78-1.13-1.83-1.59-2.8
	c-0.76-1.61-0.81-3.23,0.06-4.84c0.21-0.39,0.4-0.79,0.55-1.19c0.64-1.68,0.39-2.15-1.29-2.47c-0.06-1.21,0.18-1.59,1.62-2.59
	c-0.2-0.27-0.39-0.53-0.59-0.8c0.6-0.73,1.19-1.45,1.79-2.18c-0.08-0.1-0.16-0.21-0.25-0.31c-0.35,0.08-0.7,0.16-1.06,0.24
	c-0.04-0.06-0.12-0.14-0.1-0.17c0.7-1.41,0.14-2.6-0.52-3.85c-0.63-1.18-0.5-2.09,0.17-3.22c0.36,0.38,0.7,0.74,1.22,1.29
	c0.19-0.99,0.34-1.79,0.55-2.88c0.52,0.6,0.84,0.97,1.32,1.53c0.11-0.97,0.21-1.76,0.3-2.55c0.13-0.04,0.26-0.09,0.38-0.13
	c0.32,0.68,0.64,1.37,1.07,2.31c0.48-1.2,0.88-2.24,1.29-3.27c0.09,0,0.19-0.01,0.28-0.01c0.25,1.2,0.5,2.41,0.75,3.64
	c1.86-0.2,2.21-1.89,3.42-2.95c0.05,1.11,0.09,2.01,0.14,3.05c0.66-0.21,1.1-0.35,1.41-0.45c0.19,0.78,0.38,1.56,0.57,2.34
	c0.09-0.04,0.19-0.07,0.28-0.11c-0.23,0.44-0.45,0.88-0.78,1.52c-0.98,0.09-2.19,0.2-3.39,0.32c-0.02,0.09-0.05,0.18-0.07,0.26
	c0.75,0.3,1.5,0.59,2.24,0.89c0.59,0.24,0.96,0.51,0.77,1.32c-0.11,0.46,0.17,1.15,0.51,1.54c0.84,0.94,1.47,1.98,2.14,3.04
	c1.97,3.11,3.93,6.36,7.32,8.25c0.76,0.43,1.56,0.83,2.39,1.08c1.5,0.44,2.19,0.1,3.06-1.24c0.06-0.1,0.13-0.3,0.17-0.29
	c1.56,0.26,1.29-1.31,2.01-1.99c1.01,0.81,1.75,0.22,2.53-0.5c1.39-1.26,2.8-2.5,4.28-3.65c0.63-0.49,1.45-0.75,2.5-1.26
	c-0.15,0.84-0.24,1.32-0.35,1.96c1.1-0.08,2.18-0.16,3.6-0.26c-0.46,0.82-0.78,1.37-1.1,1.94c0.19,0.17,0.45,0.39,0.71,0.62
	c-0.96,0.74-1.86,1.43-2.76,2.12c0.07,0.12,0.13,0.24,0.2,0.36c0.67,0.08,1.34,0.16,2.01,0.24c0.02,0.09,0.03,0.19,0.05,0.28
	c-0.39,0.18-0.79,0.37-1.3,0.61c1.71,1.1,2.38,2.69,2.62,4.63c-1.43,0.21-1.32,1.5-1.46,2.4c-0.15,0.92-0.62,1.21-1.3,1.23
	c-1.26,0.03-2.41,0.07-2.36,1.96c-0.11-0.02-0.21-0.05-0.32-0.07c-0.3-0.5-0.6-1.01-1.02-1.71c-0.32,0.77-0.45,1.08-0.62,1.48
	c-0.59-0.36-1.12-0.69-1.76-1.08c0.05,0.33,0.09,0.58,0.15,0.97c-1.61-0.82-1.75,0.4-2.08,1.37c-0.18,0.52-0.37,1.02-0.83,1.54
	c-0.3-0.85-0.59-1.69-0.94-2.67c-2.5,1.74-3.39,5.57-7.37,4.61C339.8,207.48,341.01,208.6,339.48,209.06z"/>
<path d="M315.93,247.89c0.06-2.86,0.35-5.66,1.69-8.26c1.77-3.43,4.27-6.05,8.02-7.25c1.99-0.63,4.15-0.85,6.02-1.72
	c2.73-1.29,5.49-0.98,8.19-0.57c3.61,0.54,6.97,1.91,9.72,4.47c0.17,0.16,0.35,0.33,0.54,0.47c4.06,3.02,5.35,7.33,5.66,12.1
	c0.18,2.71-0.23,5.34-1.15,7.87c-2.07,5.67-5.51,10.19-11.07,12.87c-2.71,1.31-5.59,2.07-8.55,1.7c-4.33-0.55-8.61-1.48-11.85-4.78
	c-3.59-3.66-6.38-7.79-6.92-13.07C316.1,250.44,316.03,249.16,315.93,247.89z M322.61,258.08c0.57,0.63,1.11,1.19,1.61,1.78
	c0.38,0.45,0.71,0.95,1.1,1.39c1.65,1.87,3.74,3.09,6.08,3.86c1.99,0.66,4.04,1.25,6.18,0.73c2.95-0.71,5.8-1.82,8-3.88
	c1.67-1.57,3.14-3.55,4.08-5.63c1.24-2.75,1.69-5.76,1.55-8.87c-0.31-6.95-4.2-11.71-10.87-13.39c-4.62-1.16-9.12-0.73-13.35,1.69
	c-4.5,2.57-6.48,6.66-6.86,11.6c-0.26,3.37,0.78,6.54,2.17,9.59C322.46,257.31,322.51,257.72,322.61,258.08z"/>
<path d="M476.96,248.67c0.75,1.17,1.4,2.21,2.08,3.24c1.63,2.48,3.25,4.97,4.92,7.43c1.5,2.21,3.05,4.39,4.6,6.56
	c0.58,0.81,1.25,1.49,2.44,1.3c0.46-0.07,0.97,0.17,1.46,0.26c-0.01,0.14-0.01,0.28-0.02,0.42c-1.37,0-2.75,0-4.12,0
	c-1.02,0-2.04,0.03-3.06-0.03c-0.26-0.01-0.6-0.24-0.75-0.47c-2.21-3.28-4.37-6.59-6.6-9.86c-1.52-2.23-3.12-4.41-4.69-6.61
	c-1.33-1.86-1.57-2-1.28-3.91c2.02-0.67,3.92-1.26,5.78-1.95c1.92-0.71,2.99-2.29,3.48-4.14c0.8-2.96-1.81-6.45-4.86-6.7
	c-1.41-0.11-2.83-0.11-4.24-0.18c-1.04-0.05-1.48,0.34-1.47,1.47c0.06,4.16,0.02,8.32,0.03,12.47c0.01,3.7,0.04,7.39,0.04,11.09
	c0,2.07-0.04,4.14-0.08,6.21c-0.02,1.19,0.55,1.74,1.72,1.81c0.42,0.02,0.83,0.22,1.23,0.49c-3.57,0.62-7.13-0.39-10.69-0.03
	c-0.02-0.13-0.03-0.27-0.05-0.4c0.54-0.07,1.07-0.16,1.61-0.21c1.94-0.19,1.91-0.25,1.92-2.13c0.04-6.58,0.19-13.16,0.23-19.74
	c0.02-3.94-0.12-7.89-0.13-11.84c0-1.08-0.46-1.49-1.49-1.5c-0.48,0-0.96-0.14-1.44-0.22c0.01-0.12,0.02-0.24,0.03-0.36
	c1,0,2,0.03,3-0.01c3.22-0.12,6.44-0.41,9.65-0.32c1.78,0.05,3.66,0.43,5.28,1.16c2.21,0.99,3.14,3.01,3.62,5.43
	c0.91,4.58-3,9.97-7.31,10.88C477.56,248.34,477.35,248.49,476.96,248.67z"/>
<path d="M195.64,231.14c0.98,0,1.96,0.03,2.94-0.01c3.14-0.11,6.28-0.31,9.42-0.34c1.34-0.01,2.72,0.18,4.02,0.5
	c2.82,0.7,4.53,3.27,5.08,6.18c0.53,2.82-0.63,5.07-1.91,7.19c-1.11,1.83-3.11,2.93-5.23,3.59c-0.23,0.07-0.45,0.15-0.67,0.24
	c-0.07,0.03-0.11,0.1-0.29,0.26c0.72,1.11,1.44,2.25,2.18,3.37c1.56,2.38,3.11,4.77,4.71,7.13c1.57,2.31,3.16,4.6,4.8,6.85
	c0.5,0.69,1.13,1.28,2.18,1.09c0.48-0.09,1.02,0.16,1.53,0.25c-0.01,0.14-0.02,0.28-0.03,0.42c-1.43,0-2.85,0-4.28,0
	c-0.94,0-1.89,0.03-2.83-0.04c-0.29-0.02-0.65-0.28-0.82-0.54c-2.21-3.28-4.37-6.6-6.6-9.87c-1.52-2.23-3.1-4.43-4.73-6.59
	c-0.94-1.24-1.69-2.48-1.23-3.88c1.77-0.55,3.42-1.03,5.04-1.57c2.07-0.68,3.41-2.1,4.17-4.14c0.86-2.3-1.21-6.3-3.67-6.71
	c-1.81-0.3-3.66-0.36-5.5-0.48c-1.02-0.07-1.37,0.44-1.36,1.47c0.06,6.71,0.09,13.42,0.09,20.12c0,2.9-0.22,5.81-0.12,8.7
	c0.08,2.6,0.15,2.57,2.27,2.85c0.29,0.04,0.56,0.19,0.83,0.29c-0.01,0.13-0.03,0.27-0.04,0.4c-3.57-0.15-7.14-0.29-10.71-0.44
	c-0.02-0.11-0.03-0.21-0.05-0.32c0.57-0.07,1.14-0.14,1.71-0.2c1.76-0.18,1.8-0.29,1.75-2c-0.21-6.78-0.13-13.55,0.26-20.33
	c0.21-3.74-0.06-7.51-0.09-11.26c-0.01-1.11-0.48-1.68-1.65-1.62c-0.41,0.02-0.83-0.13-1.24-0.21
	C195.61,231.39,195.63,231.26,195.64,231.14z"/>
<path d="M188.51,231.45c0,2.6,0,4.83,0,7.28c-0.23-0.27-0.32-0.32-0.31-0.36c0.35-1.9-0.85-2.57-2.36-3.08
	c-4.66-1.57-9.4-2.23-14.27-1.23c-5.8,1.19-10.69,6.22-11.41,12.18c-0.23,1.92-0.35,3.94,0.03,5.81c0.36,1.79,1.34,3.48,2.21,5.13
	c0.83,1.59,1.75,3.16,2.85,4.56c0.65,0.83,1.7,1.38,2.63,1.94c3.46,2.06,7.17,2.65,11.15,1.97c2.1-0.36,4.09-0.97,5.95-1.97
	c0.41-0.22,0.84-0.82,0.86-1.27c0.08-1.31,0.03-2.64-0.15-3.94c-0.05-0.35-0.69-0.7-1.13-0.89c-0.47-0.2-1.02-0.21-1.54-0.31
	c0.01-0.12,0.03-0.23,0.04-0.35c3.41,0,6.82,0,10.23,0c0.02,0.12,0.04,0.24,0.06,0.36c-0.47,0.06-0.94,0.17-1.41,0.18
	c-1.73,0.06-1.82,0.14-1.82,1.83c0,1.36,0.08,2.73-0.04,4.07c-0.05,0.54-0.41,1.22-0.84,1.53c-6.76,4.92-14.25,5.27-21.92,2.94
	c-3.1-0.94-5.41-3.44-7.45-5.95c-2.06-2.54-3.46-5.43-3.96-8.72c-0.7-4.59-0.55-9.04,1.67-13.29c1.7-3.25,4.12-5.64,7.4-7.23
	c3.82-1.84,7.85-2.73,12.08-2.4C180.93,230.56,184.8,231.06,188.51,231.45z"/>
<path d="M442.63,238.54c-0.08,0.22-0.16,0.44-0.25,0.66c-0.35,0.84-0.74,1.67-1.05,2.52c-0.46,1.25-0.81,2.55-1.31,3.79
	c-1.51,3.72-3.12,7.41-4.61,11.15c-1.14,2.86-2.21,5.75-3.2,8.67c-0.48,1.4-0.12,1.76,1.38,1.83c0.43,0.02,0.86,0.12,1.25,0.32
	c-3.34,0-6.69,0-10.03,0c-0.02-0.09-0.04-0.18-0.06-0.27c0.13-0.1,0.29-0.32,0.38-0.29c1.34,0.39,1.73-0.45,2.18-1.47
	c1.55-3.46,3.29-6.83,4.77-10.31c2.16-5.08,4.12-10.25,6.22-15.36c0.75-1.83,1.67-3.59,2.46-5.4c0.58-1.34,1.04-2.74,1.66-4.06
	c0.17-0.36,0.69-0.74,1.07-0.77c0.29-0.02,0.75,0.46,0.89,0.81c0.85,2.09,1.67,4.19,2.44,6.31c1.12,3.09,2.14,6.21,3.29,9.29
	c0.88,2.35,1.92,4.64,2.81,6.99c1.31,3.45,2.55,6.93,3.82,10.39c0.26,0.71,0.52,1.42,0.82,2.12c0.49,1.14,1.26,1.92,2.58,2.02
	c0.4,0.03,0.8,0.2,1.14,0.58c-3.66,0-7.33,0-10.99,0c-0.02-0.17-0.04-0.34-0.05-0.51c0.45-0.07,0.9-0.17,1.35-0.19
	c0.83-0.03,1.21-0.39,0.94-1.22c-0.47-1.48-0.95-2.96-1.46-4.43c-2.16-6.19-4.32-12.39-6.5-18.57c-0.51-1.45-1.09-2.89-1.64-4.33
	C442.82,238.72,442.72,238.63,442.63,238.54z"/>
<path d="M138.13,238.65c-0.21,0.28-0.41,0.47-0.51,0.69c-0.33,0.72-0.66,1.44-0.93,2.18c-0.53,1.48-0.97,2.99-1.55,4.45
	c-0.96,2.44-2,4.85-3.01,7.26c-0.53,1.25-1.13,2.47-1.62,3.73c-1.02,2.68-2.04,5.36-2.97,8.07c-0.55,1.61-0.17,2.03,1.53,2.12
	c0.36,0.02,0.72,0.08,1.05,0.3c-3.35,0-6.71,0-10.06,0c-0.02-0.1-0.03-0.2-0.05-0.3c0.14-0.09,0.31-0.28,0.42-0.25
	c1.26,0.35,1.67-0.4,2.12-1.39c1.57-3.49,3.31-6.9,4.84-10.41c1.92-4.41,3.67-8.89,5.52-13.33c1.05-2.53,2.15-5.03,3.2-7.55
	c0.57-1.35,1.05-2.74,1.65-4.07c0.14-0.3,0.61-0.62,0.93-0.62c0.3,0,0.76,0.35,0.88,0.65c1.45,3.65,2.85,7.31,4.25,10.98
	c1.62,4.27,3.23,8.54,4.81,12.83c1.21,3.27,2.42,6.54,3.54,9.84c0.68,2,1.54,3.71,3.99,3.82c0.15,0.01,0.3,0.16,0.71,0.39
	c-3.98,0-7.64,0-11.31,0c-0.01-0.17-0.03-0.34-0.04-0.52c0.39-0.06,0.77-0.16,1.16-0.18c1.22-0.08,1.41-0.29,1.07-1.48
	c-0.36-1.26-0.81-2.51-1.24-3.75c-2.17-6.22-4.34-12.44-6.53-18.66C139.41,241.89,138.78,240.35,138.13,238.65z"/>
<path d="M312.9,231.57c0,2.44,0,4.84,0,7.23c-0.09,0.02-0.17,0.03-0.26,0.05c-0.1-0.66-0.08-1.38-0.35-1.96
	c-0.31-0.67-0.78-1.63-1.34-1.75c-3.27-0.71-6.57-1.61-9.87-1.67c-3.85-0.07-7.58,1.11-10.57,3.77c-3.13,2.78-5.06,6.45-5.19,10.52
	c-0.14,4.35,1.34,8.5,4.37,11.85c2.99,3.3,6.71,5.16,11.22,5.47c4.2,0.29,8.03-0.68,11.59-2.87c0.33-0.2,0.68-0.36,1.3-0.68
	c-0.08,1.51-0.11,2.79-0.25,4.07c-0.03,0.27-0.42,0.59-0.71,0.73c-4.04,1.9-8.31,2.47-12.72,2.11c-4.18-0.34-8.14-1.49-11.43-4.14
	c-1.49-1.19-2.58-2.88-3.81-4.38c-2.85-3.46-2.96-7.63-3.15-11.84c-0.16-3.65,0.87-6.89,2.59-10c2.7-4.87,7.35-6.21,12.39-7.26
	c4.91-1.02,9.61-0.46,14.37,0.57C311.57,231.48,312.1,231.49,312.9,231.57z"/>
<path d="M491.56,234.92c-0.16,0.76-0.29,1.34-0.41,1.91c-0.92-2.52-0.47-5.14-0.53-7.72c0.15-0.05,0.29-0.1,0.44-0.16
	c0.22,0.54,0.44,1.09,0.78,1.94c2.97,0.23,6.16,0.65,9.36,0.71c5.46,0.1,10.93-0.02,16.39-0.04c0.36,0,0.74-0.07,1.08,0.02
	c1.14,0.29,1.69-0.06,1.6-1.29c-0.02-0.27,0.16-0.56,0.47-0.81c0.28,2.67,0.06,5.31-0.17,7.96c-0.01,0.11-0.34,0.19-0.71,0.39
	c0.08-0.42,0.13-0.63,0.15-0.84c0.13-1.36-0.03-1.65-1.41-1.72c-3.29-0.18-6.58-0.28-9.87-0.41c-0.71-0.03-0.86,0.44-0.87,1.02
	c-0.02,3.22-0.01,6.44-0.06,9.66c-0.05,3.05-0.13,6.11-0.24,9.16c-0.09,2.55-0.32,5.1-0.36,7.66c-0.02,1.65,0.19,3.3,0.3,4.96
	c1.22,0.15,2.46,0.3,3.75,0.46c-0.8,0.62-10.5,0.54-11.82-0.23c1.04-0.05,1.8-0.17,2.55-0.11c1.03,0.08,1.34-0.38,1.35-1.32
	c0.05-4.13,0.14-8.27,0.21-12.4c0.05-2.96,0.11-5.91,0.12-8.87c0.01-2.56-0.04-5.12-0.07-7.67c0-0.16-0.03-0.32-0.02-0.48
	c0.09-1.87,0.09-1.98-1.61-1.97C498.51,234.71,495.05,234.84,491.56,234.92z"/>
<path d="M485.3,203.75c3.16,0.44,5.71-2.08,5.13-5.08c-0.24-1.25-0.71-2.45-1.01-3.69c-0.22-0.93-0.39-1.87-0.47-2.82
	c-0.03-0.3,0.24-0.8,0.49-0.91c0.29-0.12,0.8-0.01,1.07,0.19c0.33,0.25,0.61,0.66,0.74,1.06c0.87,2.74,1.67,5.49,2.55,8.23
	c0.32,1,0.09,1.78-0.67,2.46c-1.58,1.41-3.13,2.85-4.71,4.25c-1.32,1.16-2.71,2.25-3.99,3.45c-2.74,2.57-3.3,5.17-1.96,8.69
	c0.11,0.3,0.24,0.59,0.41,1c-2.65,0-5.22,0-7.84,0c0-3.16,0.06-6.06-0.02-8.96c-0.07-2.71,0.82-4.8,3.43-5.86
	c2.48-1,3.85-2.98,4.97-5.25c0.66-1.35,1.55-2.52,3.28-2.94C487.55,199.95,485.36,201.64,485.3,203.75z"/>
<path d="M461.54,203.79c-0.06-2.18-1.99-3.84-1.52-6.14c1.42-0.06,2.29,0.71,2.91,1.79c0.56,0.97,0.92,2.06,1.55,2.97
	c0.59,0.85,1.35,1.62,2.15,2.28c0.6,0.49,1.39,0.77,2.12,1.1c1.92,0.88,2.81,2.46,2.89,4.47c0.08,2.23-0.01,4.47,0.02,6.7
	c0.01,1.11,0.12,2.22,0.2,3.6c-2.6,0-5.19,0-7.92,0c0.28-0.76,0.43-1.48,0.79-2.08c0.93-1.54,0.95-3.16-0.02-4.53
	c-1.25-1.77-2.7-3.44-4.26-4.95c-2.01-1.93-4.21-3.67-6.34-5.47c-0.99-0.83-1.35-1.79-0.92-3.06c0.98-2.87,1.91-5.74,2.86-8.62
	c0.24-0.73,0.74-0.89,1.41-0.68c0.66,0.21,0.83,0.68,0.65,1.32c-0.54,2-1.19,3.98-1.58,6.01
	C455.91,201.63,458.23,204.04,461.54,203.79z"/>
<path d="M368.58,264.56c3.72,0,7.14,0.02,10.56-0.01c1.35-0.01,2.22-0.66,2.3-2.13c0,2.46,0,4.92,0,7.38
	c-0.93-2.38-0.93-2.34-3.62-2.37c-3.18-0.04-6.36-0.23-9.54-0.23c-2.03,0-4.07,0.2-6.1,0.31c-0.22,0.01-0.44,0-0.66,0
	c-0.03-0.11-0.05-0.23-0.08-0.34c0.45-0.11,0.91-0.33,1.36-0.32c1.27,0.02,1.51-0.78,1.52-1.77c0.03-1.79,0.01-3.58,0.04-5.37
	c0.05-3.63,0.14-7.26,0.18-10.88c0.05-4.9,0.13-9.81,0.07-14.71c-0.02-2.13-0.16-2.13-2.21-2.48c-0.3-0.05-0.6-0.16-0.88-0.53
	c3.59,0,7.18,0,10.77,0c0.02,0.14,0.03,0.29,0.05,0.43c-0.65,0.09-1.31,0.25-1.96,0.26c-1.16,0.01-1.76,0.44-1.73,1.7
	c0.06,3.29,0.07,6.58,0.05,9.87c-0.01,3.02-0.11,6.03-0.13,9.05C368.57,256.33,368.58,260.24,368.58,264.56z"/>
<path d="M215.01,213.68c-16.58,3.01-33.16,5.8-50.08,2.37c8.07-2.57,16.36-3.9,24.79-4.33
	C198.22,211.28,206.61,212.55,215.01,213.68z"/>
<path d="M466.54,202.61c0.99-1.22,1.77-2.34,2.7-3.29c1.8-1.84,1.85-3.9,0.89-6.08c-1.24-2.83-3.34-5.05-5.44-7.24
	c-1.2-1.26-2.42-2.5-3.56-3.82c3.86,2.1,7.06,4.97,9.82,8.56c1.44-3.1,2.77-6.11,5.93-7.69c-0.75,1.15-1.63,2.24-2.22,3.47
	c-0.7,1.46-1.28,3.01-1.69,4.57c-0.37,1.42,0.09,2.75,1.21,3.92c3.14-5.59,5.19-11.9,11.13-15.36c-3.43,3.28-5.24,7.38-6.15,11.59
	c0.85-0.6,1.78-1.59,2.91-1.97c1.18-0.39,2.58-0.36,3.85-0.21c1.24,0.15,1.38,0.74,0.73,1.85c-1.17,1.99-4.85,2.91-6.82,1.71
	c-0.24-0.14-0.46-0.31-0.8-0.54c-0.86,3.86-0.33,7.48,1.35,11.16C475.74,203.73,471.23,204.69,466.54,202.61z"/>
<path d="M227.21,230.8c3.59,0,7.18,0,10.77,0c0.01,0.15,0.02,0.31,0.02,0.46c-0.48,0.05-0.96,0.12-1.44,0.13
	c-1.86,0.07-2.23,0.43-2.24,2.29c-0.08,9.52-0.17,19.03-0.24,28.55c-0.01,1.44,0.09,2.88,0.06,4.31c-0.01,0.78,0.33,1.07,1.04,1.13
	c0.76,0.07,1.52,0.2,2.25,0.54c-3.59,0-7.18,0-10.77,0c-0.01-0.16-0.02-0.32-0.04-0.47c0.63-0.06,1.27-0.22,1.89-0.17
	c1.06,0.09,1.45-0.38,1.46-1.36c0.03-3.74,0.05-7.48,0.1-11.22c0.04-2.79,0.15-5.58,0.19-8.37c0.07-4.15,0.18-8.3,0.14-12.45
	c-0.02-2.61-0.13-2.61-2.71-3.07c-0.18-0.03-0.35-0.1-0.53-0.15C227.19,230.9,227.2,230.85,227.21,230.8z"/>
<path d="M197.58,201.96c-2.51,0-4.65,0.02-6.79-0.03c-0.23,0-0.52-0.32-0.68-0.57c-2.14-3.32-4.27-6.65-6.37-10
	c-0.17-0.27-0.25-0.8-0.1-1.04c1.14-1.86,2.34-3.68,3.76-5.86C190.84,190.38,194.14,196.05,197.58,201.96z"/>
<path d="M204.57,183.41c-1.88,0.75-3.75,0.72-5.63-0.03l0.04,0.04c-1.26-1.17-2.54-2.4-2.6-4.22c-0.04-1.31,0.33-2.63,0.52-3.95
	l-0.04,0.04c1.87-2.51,4.37-2.95,6.98-2.24c0.51-0.71,0.98-1.35,1.52-2.09c0.62,1.35,0.43,2.11-0.22,2.39
	c0.45,0.56,0.97,1.21,1.48,1.85c0,0-0.03-0.03-0.03-0.03c1.48,3.3,0.66,6.02-2.05,8.28L204.57,183.41z"/>
<path d="M301.36,289.99c0,1.89,0.02,3.78-0.02,5.66c-0.01,0.33-0.24,0.66-0.36,1c-0.13-0.04-0.26-0.08-0.39-0.13
	c0-2.78,0-5.55,0-8.34c0.91-0.34,1.34,0.01,1.67,0.89c0.73,1.98,1.58,3.91,2.45,6.04c0.87-2.17,1.73-4.13,2.45-6.14
	c0.32-0.9,0.81-1.06,1.72-0.77c0,2.57,0.01,5.16-0.02,7.75c0,0.2-0.25,0.41-0.38,0.61c-0.16-0.22-0.45-0.43-0.46-0.65
	c-0.04-1.99-0.02-3.97-0.27-6.03c-0.96,2.25-1.92,4.51-2.88,6.76c-0.12,0-0.25,0-0.37-0.01c-0.95-2.23-1.9-4.46-2.86-6.69
	C301.55,289.96,301.46,289.98,301.36,289.99z"/>
<path d="M258.6,311.03c-0.97-2.28-1.94-4.55-2.91-6.83c-0.09,0.02-0.17,0.03-0.26,0.05c0,1.93,0.02,3.86-0.02,5.79
	c-0.01,0.31-0.27,0.62-0.41,0.92c-0.12-0.29-0.35-0.58-0.35-0.87c-0.03-2.51-0.02-5.02-0.02-7.48c0.99-0.35,1.4,0.03,1.71,0.84
	c0.74,1.97,1.57,3.9,2.46,6.08c0.88-2.2,1.66-4.15,2.44-6.1c0.4-1,0.41-1,1.69-0.84c0,2.61,0.01,5.24-0.02,7.87
	c0,0.2-0.36,0.39-0.79,0.82c0-2.62,0-4.84,0-7.06c-0.08-0.02-0.15-0.04-0.23-0.06c-0.98,2.29-1.97,4.59-2.95,6.88
	C258.84,311.04,258.72,311.04,258.6,311.03z"/>
<path d="M350.99,311.01c-0.96-2.26-1.92-4.52-2.88-6.78c-0.09,0.01-0.18,0.02-0.27,0.02c0,1.67,0.03,3.34-0.02,5.01
	c-0.02,0.57-0.23,1.13-0.36,1.7c-0.14-0.55-0.39-1.1-0.4-1.66c-0.05-2.23-0.02-4.47-0.02-6.69c0.92-0.34,1.37-0.07,1.69,0.78
	c0.73,1.97,1.57,3.91,2.48,6.14c0.88-2.19,1.68-4.11,2.41-6.05c0.3-0.79,0.67-1.25,1.73-0.86c0,2.75,0.08,5.55-0.05,8.35
	c-0.24-0.01-0.48-0.02-0.72-0.04c0-2.23,0-4.45,0-6.68c-0.09-0.03-0.18-0.06-0.28-0.09c-0.97,2.29-1.94,4.57-2.91,6.86
	C351.25,311.02,351.12,311.01,350.99,311.01z"/>
<path d="M398.96,310.91c0-2.23,0-4.46,0-6.68c-0.08-0.02-0.16-0.05-0.24-0.07c-0.98,2.3-1.96,4.59-2.94,6.89c-0.12,0-0.24,0-0.36,0
	c-0.97-2.28-1.94-4.55-2.91-6.83c-0.09,0.01-0.17,0.02-0.26,0.04c0,1.76,0,3.53,0,5.29c0,0.32,0.04,0.65-0.02,0.96
	c-0.04,0.18-0.25,0.32-0.39,0.47c-0.13-0.16-0.36-0.32-0.36-0.49c-0.04-0.76-0.02-1.52-0.02-2.28c0-1.87,0-3.74,0-5.57
	c0.97-0.37,1.39-0.02,1.7,0.8c0.74,1.97,1.57,3.9,2.47,6.11c0.88-2.2,1.66-4.14,2.44-6.08c0.41-1.01,0.41-1.01,1.71-0.88
	c0,2.61,0.01,5.23-0.02,7.86c0,0.21-0.34,0.41-0.53,0.61C399.12,311,399.04,310.96,398.96,310.91z"/>
<path d="M159.52,288.22c0,2.56,0.01,5.08-0.02,7.59c0,0.28-0.27,0.57-0.42,0.85c-0.12-0.05-0.25-0.11-0.37-0.16
	c0-2.23,0-4.45,0-6.68c-0.08-0.02-0.16-0.05-0.24-0.07c-0.98,2.3-1.96,4.59-2.94,6.89c-0.12,0-0.24,0-0.36,0
	c-0.97-2.28-1.94-4.55-2.91-6.83c-0.09,0.01-0.17,0.03-0.26,0.04c0,1.77,0,3.53,0,5.3c0,0.32,0.04,0.65-0.03,0.96
	c-0.04,0.17-0.26,0.31-0.4,0.46c-0.12-0.17-0.35-0.33-0.35-0.5c-0.04-0.92-0.02-1.84-0.02-2.76c0-1.71,0-3.42,0-5.09
	c0.98-0.36,1.4,0,1.7,0.82c0.74,1.97,1.57,3.9,2.47,6.09c0.88-2.2,1.7-4.13,2.42-6.09C158.1,288.21,158.53,287.86,159.52,288.22z"/>
<path d="M471.87,177.66c0.3-1.01,0.56-2.04,0.91-3.03c0.22-0.63,0.67-0.66,1.24-0.3c2.04,1.28,2.63,5.88,1.01,7.68
	c-0.57,0.63-1.04,0.43-1.52,0C472.2,180.86,472.17,179.28,471.87,177.66z"/>
<path d="M466.94,181.41c-0.15,0.47-0.38,1.38-0.71,2.25c-0.33,0.87-0.95,0.84-1.58,0.31c-0.3-0.25-0.63-0.53-0.81-0.86
	c-1.08-2.09-1.21-4.24-0.28-6.43c0.31-0.73,0.78-0.82,1.4-0.39C466.6,177.41,466.8,179.14,466.94,181.41z"/>
<path d="M472.55,185.28c-0.31,0.84-0.51,1.75-0.97,2.5c-0.63,1.04-1.3,1.02-2.02,0.04c-1.04-1.43-1.21-3.09-1.11-4.78
	c0.04-0.7,0.28-1.39,0.49-2.07c0.29-0.95,0.88-0.9,1.52-0.36C471.89,181.81,472.29,183.44,472.55,185.28z"/>
<path d="M487.16,187.85c-1.4-0.55-2.86-0.9-4.06-1.66c-1.2-0.75-0.97-1.81,0.29-2.45c1.79-0.91,5.39-0.04,6.62,1.55
	c0.42,0.54,0.35,1.03-0.14,1.32C489.07,187.08,488.19,187.39,487.16,187.85z"/>
<path d="M461.27,189.16c2.83-1.58,7.44,0.51,7.4,3.72C465.93,194.4,461.89,192.4,461.27,189.16z"/>
<path d="M476.56,175.1c3.48-0.13,6,3.18,5.05,6.57C477.92,181.21,475.97,178.71,476.56,175.1z"/>
<path d="M475.57,296.65c-0.15-0.28-0.42-0.55-0.42-0.83c-0.03-2.52-0.02-5.03-0.02-7.56c0.78-0.43,1.19-0.05,1.58,0.54
	c1.4,2.08,2.82,4.15,4.49,6.16c0-1.81,0-3.62,0-5.42c0-0.32-0.04-0.65,0.02-0.96c0.04-0.18,0.24-0.32,0.37-0.48
	c0.13,0.16,0.37,0.31,0.38,0.47c0.05,0.68,0.02,1.36,0.02,2.04c0,1.95,0,3.9,0,5.85c-0.1,0.1-0.2,0.19-0.3,0.29
	c-0.42-0.29-0.95-0.49-1.23-0.88c-1.46-2.05-2.85-4.15-4.46-6.53c0,2.6,0,4.88,0,7.15C475.86,296.55,475.71,296.6,475.57,296.65z"/>
<path d="M243.81,302.31c0.44,0.32,1.01,0.55,1.31,0.97c1.44,2.01,2.81,4.07,4.48,6.08c0-1.19,0-2.38,0-3.58
	c0-0.88-0.02-1.76,0.02-2.64c0.01-0.22,0.22-0.43,0.33-0.64c0.15,0.22,0.42,0.44,0.43,0.66c0.03,2.55,0.02,5.11,0.02,7.66
	c-0.83,0.42-1.21-0.01-1.6-0.59c-1.38-2.08-2.8-4.13-4.41-6.13c0,2.25,0,4.51,0,6.76c-0.12,0.06-0.25,0.13-0.37,0.19
	c-0.16-0.26-0.46-0.52-0.47-0.78c-0.04-2.56-0.02-5.11-0.02-7.67C243.62,302.5,243.71,302.4,243.81,302.31z"/>
<path d="M436.09,296.75c-0.42-0.29-0.95-0.5-1.23-0.89c-1.45-2.05-2.84-4.14-4.46-6.53c0,2.61,0,4.89,0,7.16
	c-0.15,0.05-0.29,0.1-0.44,0.15c-0.15-0.28-0.42-0.56-0.42-0.84c-0.03-2.52-0.02-5.03-0.02-7.56c0.78-0.43,1.19-0.04,1.59,0.54
	c1.4,2.08,2.82,4.14,4.49,6.15c0-1.81,0-3.62,0-5.43c0-0.32-0.04-0.65,0.02-0.96c0.04-0.18,0.25-0.32,0.38-0.48
	c0.13,0.16,0.36,0.31,0.37,0.48c0.04,0.68,0.02,1.36,0.02,2.04c0,1.95,0,3.9,0,5.85C436.3,296.56,436.2,296.65,436.09,296.75z"/>
<path d="M459.1,296.49c0-2.79,0-5.53,0-8.49c1.43,0.1,2.83,0.04,4.15,0.34c1.97,0.44,3.16,2.21,3.06,4.17
	c-0.1,2.02-1.47,3.67-3.5,3.95C461.64,296.62,460.44,296.49,459.1,296.49z M459.99,288.86c0,2.29,0,4.56,0,6.89
	c1.79,0.1,3.58,0.29,4.78-1.41c0.83-1.17,0.89-2.46,0.18-3.72C463.83,288.69,461.95,288.8,459.99,288.86z"/>
<path d="M376.88,287.97c1.52,0.13,2.94,0.08,4.27,0.39c1.95,0.46,3.01,2.19,2.92,4.27c-0.08,1.86-1.35,3.47-3.24,3.79
	c-1.28,0.22-2.6,0.15-3.95,0.22C376.88,293.71,376.88,290.97,376.88,287.97z M377.73,295.74c1.95,0.13,3.81,0.29,4.98-1.62
	c0.75-1.22,0.65-2.86-0.25-3.93c-1.26-1.51-2.95-1.45-4.73-1.26C377.73,291.22,377.73,293.41,377.73,295.74z"/>
<path d="M359.32,292.3c0.03-2.54,2.02-4.48,4.53-4.42c2.53,0.07,4.39,2.04,4.34,4.61c-0.05,2.49-1.98,4.36-4.47,4.34
	C361.18,296.81,359.29,294.87,359.32,292.3z M367.28,292.39c0-2.17-1.47-3.71-3.53-3.7c-2.06,0.01-3.52,1.56-3.51,3.73
	c0.02,2.12,1.44,3.61,3.47,3.62C365.81,296.06,367.28,294.56,367.28,292.39z"/>
<path d="M416.92,292.29c0.03-2.54,2.04-4.48,4.55-4.41c2.53,0.07,4.38,2.05,4.33,4.62c-0.05,2.49-1.99,4.36-4.49,4.33
	C418.77,296.8,416.89,294.86,416.92,292.29z M424.88,292.32c-0.02-2.15-1.54-3.68-3.61-3.63c-2.06,0.05-3.48,1.62-3.44,3.8
	c0.04,2.1,1.5,3.56,3.54,3.55C423.46,296.03,424.9,294.5,424.88,292.32z"/>
<path d="M239.68,311.09c-0.33-0.22-0.76-0.36-0.97-0.66c-0.53-0.75-1.01-1.54-1.41-2.36c-0.4-0.84-0.93-1.26-2.04-0.91
	c0,1.2,0,2.49,0,3.78c-0.13,0.05-0.25,0.09-0.38,0.14c-0.16-0.26-0.46-0.51-0.46-0.77c-0.03-2.55-0.02-5.1-0.02-7.76
	c1.19,0,2.3-0.09,3.39,0.02c1.09,0.11,1.85,0.78,1.94,1.94c0.09,1.12-0.41,1.92-1.49,2.32c-0.15,0.05-0.29,0.12-0.57,0.24
	c0.77,1.26,1.52,2.49,2.27,3.72C239.85,310.89,239.76,310.99,239.68,311.09z M235.3,306.35c0.94-0.1,1.84-0.07,2.64-0.34
	c0.4-0.13,0.89-0.8,0.87-1.2c-0.02-0.47-0.47-1.17-0.89-1.32c-0.79-0.28-1.69-0.22-2.62-0.32
	C235.3,304.27,235.3,305.17,235.3,306.35z"/>
<path d="M337.85,302.56c1.24,0,2.35-0.09,3.45,0.03c1.11,0.12,1.81,0.84,1.88,2c0.06,1.06-0.43,1.84-1.46,2.23
	c-0.18,0.07-0.35,0.16-0.62,0.27c0.77,1.26,1.51,2.47,2.25,3.68c-0.07,0.1-0.14,0.2-0.21,0.31c-0.33-0.2-0.77-0.32-0.97-0.6
	c-0.55-0.78-1.07-1.6-1.48-2.46c-0.41-0.88-0.99-1.17-1.98-0.86c0,1.18,0,2.41,0,4.08c-0.45-0.4-0.84-0.58-0.84-0.77
	C337.84,307.84,337.85,305.21,337.85,302.56z M338.75,302.88c0,1.43,0,2.36,0,3.36c1.21,0.02,2.45,0.33,3.29-0.7
	c0.26-0.32,0.24-1.39,0.04-1.49C341.11,303.57,340.03,303.3,338.75,302.88z"/>
<path d="M272.98,296.72c-0.32-0.25-0.73-0.44-0.95-0.75c-0.52-0.75-1.03-1.53-1.41-2.36c-0.41-0.89-1-1.16-2.01-0.86
	c0,1.22,0,2.48,0,3.75c-0.09,0.05-0.18,0.1-0.26,0.15c-0.19-0.19-0.55-0.38-0.55-0.57c-0.04-2.63-0.02-5.26-0.02-7.91
	c1.23,0,2.35-0.09,3.45,0.03c1.11,0.12,1.82,0.84,1.88,1.99c0.06,1.06-0.43,1.84-1.46,2.23c-0.18,0.07-0.35,0.15-0.62,0.27
	c0.77,1.26,1.51,2.47,2.25,3.68C273.18,296.48,273.08,296.6,272.98,296.72z M268.66,291.89c1.22-0.09,2.52,0.35,3.35-0.81
	c0.24-0.34,0.21-1.21-0.06-1.52c-0.89-1.05-2.14-0.65-3.28-0.68C268.66,289.95,268.66,290.85,268.66,291.89z"/>
<path d="M195.16,310.98c0-2.89,0-5.6,0-8.44c1.1,0,2.21-0.09,3.3,0.03c0.86,0.09,1.57,0.57,1.79,1.53c0.23,1.03-0.15,1.8-1.13,2.37
	c1.26,0.57,1.91,1.48,1.53,2.79c-0.39,1.32-1.53,1.64-2.74,1.71C197.02,311.02,196.15,310.98,195.16,310.98z M195.98,310.22
	c0.93-0.04,1.85,0.09,2.62-0.18c0.54-0.2,1.13-0.9,1.25-1.47c0.17-0.81-0.43-1.44-1.3-1.52c-0.84-0.08-1.69-0.02-2.57-0.02
	C195.98,308.12,195.98,309.09,195.98,310.22z M195.97,306.26c1.24-0.06,2.5,0.41,3.27-0.78c0.23-0.36,0.2-1.18-0.06-1.51
	c-0.83-1.05-2.03-0.74-3.2-0.66C195.97,304.31,195.97,305.21,195.97,306.26z"/>
<path d="M207.91,296.64c0-2.9,0-5.64,0-8.66c1.48,0.14,3,0.09,4.42,0.45c1.85,0.48,2.88,2.3,2.75,4.27
	c-0.13,1.84-1.44,3.43-3.31,3.74C210.53,296.64,209.25,296.58,207.91,296.64z M208.72,288.9c0,2.32,0,4.56,0,6.84
	c1.93,0.11,3.81,0.3,4.95-1.62c0.76-1.27,0.72-2.62-0.16-3.82C212.31,288.66,210.54,288.77,208.72,288.9z"/>
<path d="M322.16,288.09c1.08,0,2.03-0.05,2.98,0.01c1.39,0.08,2.13,0.71,2.32,1.82c0.21,1.22-0.27,1.97-1.61,2.56
	c-0.11,0.05-0.2,0.12-0.38,0.23c0.74,1.22,1.48,2.43,2.21,3.64c-0.07,0.1-0.13,0.2-0.2,0.3c-0.33-0.19-0.77-0.3-0.97-0.59
	c-0.55-0.78-1.06-1.6-1.47-2.46c-0.41-0.87-0.97-1.18-2.01-0.84c0,0.99,0.03,2.02-0.02,3.04c-0.01,0.26-0.31,0.5-0.47,0.75
	c-0.13-0.25-0.36-0.5-0.36-0.75C322.15,293.31,322.16,290.8,322.16,288.09z M323.09,291.85c1.3-0.02,2.58,0.35,3.38-0.84
	c0.22-0.33,0.18-1.1-0.06-1.41c-0.87-1.11-2.12-0.69-3.32-0.74C323.09,289.91,323.09,290.81,323.09,291.85z"/>
<path d="M174.08,288.13c1.18,0,2.25-0.08,3.31,0.02c1.07,0.11,1.88,0.66,2.01,1.86c0.13,1.18-0.36,2.01-1.49,2.42
	c-0.15,0.05-0.28,0.12-0.54,0.24c0.76,1.25,1.5,2.45,2.23,3.65c-0.06,0.1-0.12,0.21-0.18,0.31c-0.33-0.18-0.78-0.28-0.97-0.55
	c-0.55-0.78-1.06-1.6-1.47-2.46c-0.41-0.84-0.94-1.24-2.02-0.85c0,0.99,0.03,2.06-0.02,3.12c-0.01,0.23-0.29,0.44-0.45,0.66
	c-0.14-0.2-0.39-0.4-0.39-0.6C174.07,293.38,174.08,290.8,174.08,288.13z M175.07,288.78c0,1.14,0,2.1,0,3.19
	c0.95-0.11,1.81-0.08,2.57-0.35c0.41-0.14,0.9-0.8,0.89-1.2c-0.02-0.47-0.47-1.17-0.89-1.32
	C176.86,288.82,175.96,288.87,175.07,288.78z"/>
<path d="M414.32,302.49c1.09,0,2.04-0.05,2.99,0.01c1.38,0.09,2.13,0.71,2.32,1.83c0.2,1.21-0.28,1.96-1.62,2.55
	c-0.1,0.05-0.2,0.12-0.37,0.24c0.75,1.22,1.48,2.42,2.22,3.63c-0.07,0.1-0.14,0.2-0.22,0.31c-0.33-0.19-0.77-0.31-0.97-0.6
	c-0.55-0.78-1.06-1.6-1.47-2.46c-0.41-0.87-0.97-1.18-2-0.82c0,0.98,0.02,2.01-0.02,3.04c-0.01,0.25-0.24,0.5-0.37,0.74
	c-0.16-0.25-0.47-0.5-0.47-0.75C414.31,307.7,414.32,305.19,414.32,302.49z M415.27,306.37c0.99-0.12,1.85-0.09,2.61-0.35
	c0.41-0.14,0.9-0.8,0.89-1.2c-0.02-0.47-0.47-1.17-0.89-1.32c-0.78-0.28-1.68-0.23-2.61-0.32
	C415.27,304.3,415.27,305.22,415.27,306.37z"/>
<path d="M280.8,307.07c0.78,1.27,1.52,2.48,2.25,3.68c-0.07,0.1-0.15,0.2-0.22,0.31c-0.33-0.2-0.77-0.32-0.97-0.61
	c-0.55-0.78-1.06-1.6-1.47-2.46c-0.41-0.88-0.99-1.15-2-0.83c0,1.01,0.02,2.04-0.02,3.06c-0.01,0.25-0.24,0.49-0.37,0.74
	c-0.16-0.25-0.46-0.51-0.46-0.76c-0.04-2.51-0.02-5.02-0.02-7.64c1.2,0,2.35-0.1,3.47,0.03c1.03,0.11,1.75,0.74,1.86,1.87
	c0.1,1.13-0.36,1.93-1.42,2.36C281.25,306.89,281.07,306.96,280.8,307.07z M278.5,303.18c0,1.17,0,2.1,0,3.18
	c0.93-0.1,1.8-0.05,2.54-0.33c0.43-0.16,0.93-0.84,0.93-1.29c0-0.44-0.52-1.11-0.96-1.26C280.26,303.21,279.4,303.27,278.5,303.18z"
	/>
<path d="M194.75,291.8c1.05,0,2.01-0.04,2.96,0.02c0.36,0.02,0.7,0.27,1.05,0.41c-0.37,0.12-0.73,0.33-1.1,0.35
	c-0.95,0.05-1.9,0.02-2.91,0.02c0,1.08,0,2.06,0,3.2c1.23,0,2.45-0.02,3.66,0.02c0.27,0.01,0.54,0.26,0.81,0.4
	c-0.24,0.13-0.48,0.36-0.73,0.36c-1.5,0.03-3.01,0.02-4.58,0.02c0-2.88,0-5.61,0-8.43c1.71,0,3.39,0,5.07,0
	c0.02,0.12,0.03,0.24,0.05,0.37c-1.29,0.76-2.85-0.01-4.28,0.43C194.75,289.84,194.75,290.74,194.75,291.8z"/>
<path d="M314.04,295.8c1.29,0,2.52-0.02,3.75,0.02c0.24,0.01,0.47,0.24,0.71,0.37c-0.23,0.13-0.47,0.38-0.7,0.39
	c-1.51,0.04-3.01,0.02-4.59,0.02c0-2.9,0-5.66,0-8.52c1.54,0,3.01-0.01,4.48,0.02c0.21,0,0.41,0.23,0.62,0.35
	c-0.2,0.13-0.4,0.37-0.6,0.37c-1.19,0.04-2.38,0.02-3.65,0.02c0,0.99,0,1.88,0,2.97c1.09,0,2.19-0.02,3.29,0.02
	c0.24,0.01,0.48,0.25,0.72,0.38c-0.24,0.13-0.48,0.36-0.72,0.37c-1.07,0.04-2.14,0.02-3.29,0.02
	C314.04,293.66,314.04,294.63,314.04,295.8z"/>
<path d="M360.5,310.2c1.3,0,2.53-0.02,3.76,0.02c0.22,0.01,0.44,0.21,0.66,0.33c-0.23,0.15-0.45,0.43-0.68,0.43
	c-1.51,0.04-3.02,0.02-4.61,0.02c0-2.85,0-5.59,0-8.42c1.68,0,3.4,0,5.11,0c0.02,0.15,0.04,0.3,0.06,0.44
	c-1.35,0.54-2.89-0.03-4.33,0.34c0,0.9,0,1.76,0,2.85c1.07,0,2.13-0.03,3.18,0.02c0.29,0.01,0.58,0.24,0.87,0.37
	c-0.28,0.14-0.55,0.38-0.83,0.39c-1.03,0.05-2.06,0.02-3.2,0.02C360.5,308.06,360.5,309.04,360.5,310.2z"/>
<path d="M393.14,288.84c-1.51,0-2.86,0-4.31,0c0,0.99,0,1.88,0,2.96c1.07,0,2.13-0.03,3.19,0.02c0.28,0.01,0.55,0.26,0.83,0.4
	c-0.29,0.12-0.58,0.34-0.87,0.36c-1.03,0.04-2.06,0.02-3.17,0.02c0,1.09,0,2.06,0,3.2c1.24,0,2.47-0.02,3.7,0.02
	c0.25,0.01,0.49,0.24,0.74,0.36c-0.24,0.14-0.47,0.39-0.71,0.4c-1.51,0.04-3.02,0.02-4.59,0.02c0-2.87,0-5.61,0-8.35
	C389.96,287.79,392.79,288.03,393.14,288.84z"/>
<path d="M373.86,311.13c-0.33-0.25-0.74-0.44-0.97-0.76c-0.52-0.75-1.02-1.54-1.41-2.36c-0.42-0.87-1-1.18-2.05-0.84
	c0,0.98,0.02,2.01-0.02,3.03c-0.01,0.26-0.22,0.51-0.34,0.76c-0.15-0.22-0.42-0.45-0.42-0.67c-0.03-2.55-0.02-5.1-0.02-7.73
	c1.19,0,2.3-0.09,3.39,0.03c1.04,0.11,1.78,0.73,1.9,1.85c0.12,1.12-0.33,1.94-1.4,2.38c-0.18,0.07-0.35,0.16-0.63,0.29
	c0.77,1.27,1.5,2.48,2.23,3.69C374.05,310.9,373.96,311.01,373.86,311.13z M369.52,303.18c0,1.13,0,2.06,0,3.17
	c0.95-0.1,1.85-0.08,2.65-0.34c0.4-0.13,0.89-0.81,0.87-1.21c-0.03-0.47-0.48-1.16-0.91-1.31
	C371.34,303.22,370.44,303.27,369.52,303.18z"/>
<path d="M411.03,310.84c-1.06,0.39-1.16-0.38-1.31-0.89c-0.28-0.97-0.83-1.36-1.83-1.2c-0.39,0.06-0.8,0.05-1.2,0
	c-1.27-0.16-2.26,0.07-2.56,1.56c-0.06,0.31-0.54,0.53-0.82,0.79c-0.1-0.09-0.2-0.18-0.3-0.27c1.13-2.63,2.25-5.27,3.4-7.89
	c0.27-0.62,0.84-0.78,1.14-0.12C408.76,305.47,409.87,308.15,411.03,310.84z M407,303.48c-0.68,1.67-1.24,3.04-1.83,4.48
	c1.3,0,2.41,0,3.68,0C408.24,306.49,407.68,305.12,407,303.48z"/>
<path d="M258.04,288.21c0,1.75-0.03,3.5,0.01,5.25c0.03,1.57,0.82,2.48,2.11,2.57c1.38,0.09,2.34-0.6,2.46-2.02
	c0.13-1.66,0.06-3.35,0.12-5.02c0.01-0.33,0.23-0.66,0.35-0.99c0.13,0.04,0.27,0.08,0.4,0.12c0,2.05,0.14,4.12-0.04,6.16
	c-0.15,1.71-1.47,2.61-3.2,2.55c-1.68-0.06-2.81-0.99-2.94-2.7c-0.14-1.82-0.09-3.66-0.07-5.5c0-0.21,0.33-0.43,0.5-0.64
	C257.83,288.07,257.94,288.14,258.04,288.21z"/>
<path d="M348.4,296.71c-0.29-0.35-0.71-0.66-0.84-1.06c-0.33-1.03-0.9-1.51-2.01-1.3c-0.31,0.06-0.64,0.05-0.95,0
	c-1.36-0.19-2.39,0.09-2.72,1.65c-0.06,0.27-0.51,0.46-0.78,0.69c-0.1-0.09-0.2-0.18-0.3-0.26c1.14-2.65,2.24-5.32,3.44-7.95
	c0.31-0.67,0.88-0.61,1.2,0.12c1.12,2.59,2.23,5.18,3.34,7.77C348.66,296.48,348.53,296.6,348.4,296.71z M344.79,289.08
	c-0.68,1.67-1.24,3.04-1.83,4.49c1.3,0,2.42,0,3.68,0C346.03,292.11,345.46,290.72,344.79,289.08z"/>
<path d="M215.29,302.4c0.13,0.29,0.36,0.58,0.37,0.88c0.04,1.51-0.01,3.03,0.03,4.55c0.05,1.52,0.7,2.39,1.83,2.58
	c1.66,0.28,2.78-0.7,2.83-2.54c0.04-1.75,0.01-3.5,0.01-5.25c0.11-0.07,0.22-0.13,0.32-0.2c0.17,0.25,0.49,0.49,0.49,0.74
	c0.03,1.71,0.08,3.43-0.03,5.14c-0.13,1.93-1.37,2.99-3.22,2.94c-1.78-0.05-2.97-1.15-3.05-3.02c-0.08-1.87-0.02-3.74-0.02-5.61
	C215,302.54,215.14,302.47,215.29,302.4z"/>
<path d="M203.78,310.77c1.12-2.59,2.23-5.18,3.37-7.75c0.1-0.23,0.45-0.51,0.66-0.49c0.22,0.02,0.52,0.32,0.62,0.56
	c1.12,2.55,2.2,5.1,3.31,7.69c-0.79,0.49-1.07-0.04-1.19-0.58c-0.29-1.25-1.05-1.64-2.25-1.45c-0.39,0.06-0.8,0.06-1.19,0
	c-1.17-0.2-1.86,0.22-2.16,1.41c-0.09,0.36-0.53,0.64-0.81,0.95C204.02,310.99,203.9,310.88,203.78,310.77z M209.59,307.95
	c-0.61-1.47-1.18-2.85-1.84-4.45c-0.66,1.6-1.24,2.98-1.85,4.45C207.19,307.95,208.32,307.95,209.59,307.95z"/>
<path d="M217.65,296.34c1.12-2.58,2.23-5.17,3.37-7.75c0.1-0.22,0.47-0.49,0.67-0.46c0.23,0.03,0.49,0.34,0.6,0.59
	c1.12,2.54,2.2,5.1,3.31,7.67c-0.78,0.47-1.06-0.03-1.19-0.59c-0.29-1.24-1.05-1.65-2.25-1.46c-0.39,0.06-0.8,0.06-1.19,0
	c-1.17-0.19-1.87,0.2-2.16,1.4c-0.09,0.36-0.53,0.63-0.81,0.94C217.89,296.57,217.77,296.45,217.65,296.34z M219.79,293.49
	c1.32,0,2.43,0,3.64,0c-0.61-1.46-1.17-2.79-1.84-4.37C220.93,290.73,220.38,292.07,219.79,293.49z"/>
<path d="M246.19,296.41c1.14-2.65,2.25-5.32,3.46-7.95c0.31-0.68,0.88-0.56,1.19,0.16c1.11,2.59,2.22,5.18,3.33,7.77
	c-0.08,0.09-0.17,0.18-0.25,0.28c-0.31-0.26-0.8-0.47-0.88-0.78c-0.33-1.36-1.16-1.75-2.45-1.54c-0.35,0.06-0.72,0.06-1.07,0
	c-1.19-0.21-1.85,0.25-2.15,1.42c-0.09,0.35-0.53,0.61-0.82,0.91C246.43,296.59,246.31,296.5,246.19,296.41z M252.02,293.55
	c-0.62-1.48-1.18-2.83-1.86-4.45c-0.68,1.65-1.23,3-1.83,4.45C249.61,293.55,250.71,293.55,252.02,293.55z"/>
<path d="M334.24,311.12c-0.29-0.31-0.75-0.57-0.84-0.93c-0.32-1.25-1.09-1.63-2.28-1.44c-0.23,0.04-0.48,0.03-0.72,0
	c-1.34-0.17-2.41,0.04-2.74,1.62c-0.06,0.28-0.5,0.48-0.76,0.71c-0.1-0.09-0.21-0.18-0.31-0.27c0.62-1.45,1.23-2.9,1.85-4.35
	c0.47-1.1,0.92-2.2,1.43-3.28c0.13-0.28,0.43-0.64,0.68-0.66c0.22-0.02,0.58,0.33,0.7,0.6c1.12,2.54,2.21,5.1,3.3,7.65
	C334.46,310.89,334.35,311,334.24,311.12z M332.41,307.94c-0.61-1.47-1.18-2.82-1.85-4.44c-0.68,1.64-1.23,2.99-1.83,4.44
	C330,307.94,331.11,307.94,332.41,307.94z"/>
<path d="M455.45,296.7c-0.3-0.32-0.77-0.59-0.88-0.97c-0.33-1.18-1.04-1.58-2.2-1.38c-0.31,0.05-0.64,0.04-0.95,0
	c-1.29-0.18-2.23,0.11-2.54,1.57c-0.06,0.3-0.47,0.52-0.72,0.78c-0.1-0.08-0.21-0.15-0.31-0.23c0.09-0.28,0.15-0.57,0.26-0.83
	c0.95-2.23,1.9-4.46,2.89-6.68c0.15-0.34,0.53-0.59,0.8-0.88c0.25,0.27,0.59,0.49,0.73,0.81c1.1,2.5,2.17,5.02,3.24,7.54
	C455.67,296.52,455.56,296.61,455.45,296.7z M451.77,289.09c-0.68,1.65-1.24,3.02-1.84,4.47c1.32,0,2.43,0,3.68,0
	C453.01,292.12,452.46,290.76,451.77,289.09z"/>
<path d="M424.32,306.49c0,1.5,0.02,2.68-0.02,3.86c-0.01,0.21-0.24,0.42-0.37,0.62c-0.16-0.17-0.46-0.34-0.47-0.51
	c-0.03-2.63-0.02-5.25-0.02-7.94c1.33-0.03,0.78,0.91,0.85,1.41c0.09,0.66,0.02,1.35,0.02,2.31c0.95-0.86,1.69-1.59,2.49-2.26
	c0.73-0.61,1.18-1.74,2.64-1.4c-1.42,1.3-2.73,2.5-4.28,3.92c1.61,1.37,3.15,2.68,4.7,3.98c-0.16,0.21-0.31,0.42-0.47,0.63
	c-0.48-0.25-1.05-0.41-1.43-0.78C426.79,309.18,425.68,307.94,424.32,306.49z"/>
<path d="M170.39,296.72c-0.3-0.4-0.73-0.76-0.87-1.21c-0.28-0.92-0.79-1.31-1.75-1.16c-0.39,0.06-0.81,0.06-1.2,0
	c-1.35-0.21-2.31,0.12-2.64,1.62c-0.06,0.29-0.49,0.49-0.75,0.73c-0.11-0.09-0.22-0.18-0.34-0.27c0.7-1.63,1.39-3.26,2.09-4.9
	c0.42-0.99,0.83-1.99,1.29-2.97c0.34-0.73,0.9-0.75,1.2-0.06c1.18,2.61,2.27,5.26,3.4,7.89
	C170.68,296.51,170.54,296.61,170.39,296.72z M166.83,289.09c-0.69,1.67-1.25,3.02-1.85,4.47c1.32,0,2.42,0,3.68,0
	C168.08,292.12,167.52,290.78,166.83,289.09z"/>
<path d="M288.29,306.62c1.66,1.43,3.17,2.72,4.68,4.02c-0.12,0.17-0.23,0.33-0.35,0.5c-0.48-0.27-1.05-0.45-1.43-0.82
	c-1.18-1.17-2.28-2.4-3.62-3.84c0,1.68,0,3.05,0,4.43c-0.09,0.05-0.18,0.1-0.27,0.15c-0.19-0.19-0.55-0.38-0.55-0.58
	c-0.03-2.52-0.03-5.04,0.01-7.55c0-0.18,0.35-0.35,0.78-0.75c0,1.54,0,2.71,0,3.98c1.86-1.09,2.81-3.22,4.84-3.79
	c0.08,0.1,0.16,0.21,0.23,0.31C291.31,303.86,289.99,305.06,288.29,306.62z"/>
<path d="M266.32,310.75c1.12-2.6,2.22-5.2,3.36-7.79c0.32-0.73,0.89-0.74,1.2-0.05c1.17,2.61,2.27,5.26,3.39,7.89
	c-0.11,0.09-0.23,0.19-0.34,0.28c-0.3-0.32-0.76-0.6-0.87-0.98c-0.32-1.12-0.96-1.54-2.09-1.37c-0.43,0.07-0.89,0.07-1.32,0
	c-1.17-0.19-1.87,0.22-2.19,1.41c-0.1,0.36-0.52,0.64-0.8,0.95C266.55,310.99,266.43,310.87,266.32,310.75z M270.26,303.5
	c-0.68,1.67-1.24,3.01-1.82,4.44c1.27,0,2.4,0,3.67,0C271.5,306.49,270.95,305.15,270.26,303.5z"/>
<path d="M433.81,307c0,1.15,0,2.1,0,3.2c1.23,0,2.42-0.02,3.6,0.02c0.3,0.01,0.58,0.22,0.88,0.34c-0.27,0.15-0.53,0.41-0.8,0.42
	c-1.47,0.04-2.94,0.02-4.46,0.02c0-2.87,0-5.61,0-8.43c1.69,0,3.38,0,5.26,0c-0.58,1.11-1.46,0.57-2.11,0.65
	c-0.74,0.1-1.5,0.02-2.33,0.02c0,1,0,1.89,0,2.96c1.02,0,2-0.04,2.98,0.02c0.36,0.02,0.7,0.27,1.05,0.42
	c-0.33,0.12-0.66,0.33-1,0.34C435.89,307.03,434.9,307,433.81,307z"/>
<path d="M225.41,302.57c1.78,0,3.43,0,5.09,0c0.02,0.14,0.04,0.29,0.05,0.43c-1.33,0.59-2.87-0.03-4.32,0.37c0,0.89,0,1.78,0,2.84
	c1.16,0,2.27-0.03,3.37,0.02c0.23,0.01,0.45,0.29,0.67,0.44c-0.22,0.11-0.44,0.31-0.67,0.32c-1.11,0.03-2.21,0.02-3.39,0.02
	c0,1.11,0,2.08,0,3.2c1.28,0,2.5-0.02,3.73,0.02c0.25,0.01,0.49,0.24,0.73,0.36c-0.23,0.14-0.47,0.39-0.7,0.4
	c-1.51,0.04-3.02,0.02-4.57,0.02C225.41,308.11,225.41,305.37,225.41,302.57z"/>
<path d="M457.78,183.83c3.14-0.93,5.92,0.5,6.22,3.14C461.63,188.18,458.47,186.62,457.78,183.83z"/>
<path d="M414.02,289.56c-0.6-0.1-0.96-0.06-1.2-0.22c-1.57-1.01-3.41-0.82-4.54,0.5c-1.25,1.46-1.2,3.78,0.1,5.15
	c1.25,1.31,3.13,1.4,4.65,0.25c0.21-0.16,0.55-0.17,1.13-0.33c-1.49,2.18-4.26,2.45-6.14,0.93c-1.89-1.52-2.05-4.73-0.39-6.57
	C409.34,287.41,412.62,287.51,414.02,289.56z"/>
<path d="M338.08,289.51c-0.31-0.05-0.66-0.02-0.91-0.17c-1.59-0.99-3.44-0.81-4.55,0.5c-1.25,1.48-1.21,3.77,0.1,5.15
	c1.25,1.32,3.1,1.41,4.65,0.27c0.2-0.15,0.52-0.12,0.78-0.18c-0.09,0.26-0.11,0.62-0.29,0.78c-1.23,1.05-2.66,1.22-4.16,0.72
	c-1.73-0.58-2.62-1.88-2.87-3.65c-0.26-1.86,0.74-3.79,2.38-4.58C334.98,287.5,336.86,287.82,338.08,289.51z"/>
<path d="M190.12,295.01c-1.29,2.09-3.96,2.33-5.8,0.87c-1.89-1.51-2.15-4.62-0.54-6.45c1.68-1.93,4.39-2.06,6.23,0.03
	c-0.32-0.04-0.71,0.01-0.96-0.15c-1.39-0.87-3.06-0.81-4.22,0.22c-1.25,1.11-1.57,3.17-0.73,4.74c0.75,1.38,2.33,2.11,3.87,1.68
	c0.48-0.13,0.89-0.5,1.35-0.72C189.57,295.11,189.86,295.08,190.12,295.01z"/>
<path d="M239.76,292.64c0,1.2,0.03,2.23-0.02,3.25c-0.01,0.23-0.28,0.45-0.43,0.68c-0.14-0.23-0.41-0.46-0.41-0.7
	c-0.03-2.54-0.02-5.08-0.02-7.73c1.15,0,2.22-0.1,3.26,0.03c1.31,0.16,2.01,1.08,1.97,2.28c-0.04,1.2-0.81,2.02-2.12,2.17
	C241.33,292.7,240.65,292.64,239.76,292.64z M239.8,291.93c1.22-0.11,2.51,0.37,3.25-0.83c0.24-0.39,0.17-1.3-0.13-1.62
	c-0.84-0.9-2-0.67-3.12-0.56C239.8,289.93,239.8,290.84,239.8,291.93z"/>
<path d="M276.54,295.26c0.31,0.06,0.62,0.11,0.92,0.19c0.67,0.18,1.39,0.62,1.98,0.48c0.55-0.13,1.24-0.81,1.35-1.35
	c0.09-0.46-0.46-1.17-0.91-1.57c-0.38-0.34-1.03-0.39-1.54-0.59c-1.26-0.49-1.87-1.33-1.75-2.4c0.12-1.11,0.97-1.92,2.28-2.1
	c1.04-0.14,1.97,0.14,2.61,1.31c-0.31-0.04-0.61-0.09-0.92-0.13c-0.68-0.1-1.41-0.38-2.03-0.22c-0.43,0.11-0.96,0.8-0.99,1.26
	c-0.03,0.46,0.4,1.11,0.81,1.4c0.57,0.4,1.32,0.52,1.98,0.79c1,0.41,1.51,1.18,1.43,2.25c-0.09,1.11-0.71,1.86-1.8,2.12
	c-1.33,0.32-2.52,0.07-3.47-0.99C276.49,295.56,276.52,295.41,276.54,295.26z"/>
<path d="M382.3,303.65c-0.29-0.04-0.59-0.09-0.88-0.13c-0.68-0.1-1.41-0.39-2.03-0.24c-0.44,0.11-0.99,0.79-1.02,1.25
	c-0.04,0.46,0.4,1.11,0.82,1.4c0.57,0.4,1.33,0.52,1.99,0.79c1.04,0.44,1.56,1.23,1.42,2.37c-0.14,1.12-0.82,1.8-1.91,2.03
	c-1.3,0.27-2.45,0.01-3.31-1.4c0.32,0.05,0.65,0.07,0.96,0.15c0.71,0.16,1.46,0.57,2.11,0.44c0.5-0.1,1.13-0.82,1.22-1.35
	c0.08-0.45-0.43-1.11-0.85-1.5c-0.35-0.33-0.94-0.39-1.43-0.57c-1.58-0.59-2.19-1.53-1.83-2.87c0.31-1.16,1.7-1.97,3.07-1.68
	c0.63,0.14,1.21,0.5,1.82,0.76C382.38,303.28,382.34,303.47,382.3,303.65z"/>
<path d="M319.56,302.48c1.5,0,2.9-0.02,4.3,0.02c0.23,0.01,0.45,0.26,0.67,0.41c-0.22,0.11-0.43,0.31-0.66,0.32
	c-1.11,0.03-2.23,0.01-3.44,0.01c0,0.99,0,1.88,0,2.82c1.27,0.13,2.54,0.25,3.8,0.39c0.02,0,0,0.29,0,0.54c-1.27,0-2.5,0-3.71,0
	c-0.58,1.32,0.28,2.86-0.54,4.01c-0.14-0.03-0.28-0.05-0.42-0.08C319.56,308.16,319.56,305.39,319.56,302.48z"/>
<path d="M443.84,303.46c-0.93-0.59-2.11,0.29-2.73-0.98c1.98,0,3.95-0.01,5.93,0.02c0.15,0,0.29,0.26,0.43,0.4
	c-0.18,0.11-0.35,0.31-0.53,0.32c-0.67,0.04-1.35,0.02-2.23,0.02c0,1.13,0,2.18,0,3.23c0,1.28,0.02,2.55-0.02,3.82
	c-0.01,0.23-0.28,0.45-0.43,0.67c-0.14-0.23-0.4-0.47-0.4-0.7c-0.03-1.87-0.02-3.75-0.02-5.62
	C443.84,304.22,443.84,303.79,443.84,303.46z"/>
<path d="M298.72,303.23c0,2.35,0.01,4.57-0.02,6.79c0,0.34-0.22,0.69-0.33,1.03c-0.16-0.04-0.31-0.08-0.47-0.12
	c0-2.53,0-5.05,0-7.71c-0.85,0-1.56,0.03-2.27-0.02c-0.2-0.01-0.38-0.26-0.57-0.41c0.18-0.11,0.36-0.31,0.54-0.31
	c1.8-0.02,3.59-0.02,5.39,0c0.17,0,0.33,0.22,0.5,0.34c-0.16,0.13-0.31,0.36-0.48,0.37C300.31,303.26,299.6,303.23,298.72,303.23z"
	/>
<path d="M353.55,296.65c-0.12-0.34-0.32-0.68-0.33-1.02c-0.03-1.8-0.01-3.59-0.02-5.39c0-0.43-0.04-0.85-0.07-1.4
	c-0.77,0-1.44,0.03-2.11-0.02c-0.21-0.02-0.4-0.25-0.59-0.38c0.17-0.12,0.33-0.34,0.5-0.34c1.8-0.02,3.59-0.02,5.39,0
	c0.18,0,0.36,0.2,0.53,0.31c-0.19,0.14-0.37,0.39-0.57,0.4c-0.7,0.05-1.41,0.02-2.22,0.02c0,2.63,0,5.13,0,7.63
	C353.89,296.52,353.72,296.59,353.55,296.65z"/>
<path d="M442.42,289.05c-0.89-0.6-2.09,0.34-2.97-0.97c2.28,0,4.27-0.01,6.25,0.01c0.14,0,0.28,0.2,0.42,0.3
	c-0.15,0.14-0.28,0.4-0.44,0.41c-0.75,0.04-1.5,0.02-2.35,0.02c0,2.63,0,5.13,0,7.62c-0.13,0.06-0.26,0.12-0.39,0.18
	c-0.16-0.29-0.45-0.58-0.45-0.88c-0.04-1.84-0.02-3.67-0.02-5.51C442.48,289.82,442.44,289.39,442.42,289.05z"/>
<path d="M444.63,249.67c0.02,1.11-0.72,1.9-1.82,1.95c-1.16,0.05-2.01-0.75-2-1.88c0-1.08,0.8-1.89,1.88-1.91
	C443.78,247.81,444.61,248.59,444.63,249.67z"/>
<path d="M137.96,251.61c-1.13-0.02-1.86-0.77-1.86-1.9c0-1.1,0.77-1.86,1.89-1.86c1.18,0,1.97,0.81,1.92,1.96
	C139.87,250.93,139.11,251.63,137.96,251.61z"/>
<path d="M403.3,250.08c1.15-0.03,1.92,0.66,1.97,1.75c0.05,1.13-0.64,1.87-1.78,1.92c-1.23,0.06-2.02-0.64-2.04-1.79
	C401.43,250.85,402.17,250.11,403.3,250.08z"/>
<path d="M259.08,253.76c-1.15-0.02-1.88-0.73-1.87-1.84c0.01-1.09,0.78-1.84,1.9-1.84c1.18-0.01,1.96,0.77,1.92,1.93
	C261,253.12,260.27,253.77,259.08,253.76z"/>
<path d="M470.59,296.66c-0.17-0.24-0.48-0.48-0.48-0.72c-0.04-2.43-0.03-4.85,0-7.28c0-0.22,0.31-0.44,0.73-0.53
	c0,2.79,0,5.58,0,8.37C470.75,296.55,470.67,296.6,470.59,296.66z"/>
<path d="M229.35,296.66c-0.16-0.26-0.44-0.51-0.45-0.77c-0.03-2.39-0.03-4.77,0-7.16c0-0.25,0.3-0.5,0.46-0.74
	c0.1,0.05,0.19,0.1,0.29,0.14c0,2.77,0,5.53,0,8.3C229.56,296.51,229.45,296.59,229.35,296.66z"/>
<path d="M487.04,292.38c0,1.19,0.02,2.39-0.02,3.58c-0.01,0.21-0.24,0.4-0.37,0.61c-0.13-0.2-0.38-0.39-0.39-0.59
	c-0.03-2.43-0.03-4.86,0-7.28c0-0.2,0.24-0.4,0.37-0.6c0.13,0.19,0.38,0.39,0.38,0.58C487.05,289.91,487.04,291.15,487.04,292.38z"
	/>
<path d="M397.76,292.4c0,1.15,0.02,2.31-0.02,3.46c-0.01,0.24-0.26,0.47-0.39,0.7c-0.13-0.24-0.36-0.49-0.37-0.73
	c-0.03-2.35-0.03-4.7,0-7.04c0-0.23,0.26-0.46,0.39-0.69c0.13,0.24,0.36,0.48,0.37,0.72C397.78,290.01,397.76,291.21,397.76,292.4z"
	/>
<path d="M198.95,183.38c0.67,0.97,0.33,1.49-1.49,1.97c0.16-0.72,0.3-1.33,0.46-2.01c0.42,0.03,0.75,0.06,1.08,0.08
	C198.99,183.42,198.95,183.38,198.95,183.38z"/>
<path d="M208.81,182.81c-0.89-0.44-1.5-0.74-2.12-1.04c0.22-0.33,0.44-0.94,0.65-0.94C208.25,180.84,208.62,181.5,208.81,182.81z"/>
<path d="M202.55,184.09c-0.16,0.89-0.28,1.56-0.4,2.22c-0.15,0.02-0.31,0.05-0.46,0.07c-0.28-0.54-0.55-1.08-0.91-1.77
	C201.4,184.43,201.82,184.3,202.55,184.09z"/>
<path d="M204.54,183.44c0.34-0.08,0.68-0.16,1.08-0.25c0.14,0.73,0.25,1.38,0.38,2.05c-1.41-0.15-1.87-0.79-1.43-1.83
	C204.57,183.41,204.54,183.44,204.54,183.44z"/>
<path d="M194.63,182.41c0.45-0.68,0.79-1.19,1.27-1.92c0.42,0.69,0.73,1.22,1.15,1.92C196.14,182.41,195.5,182.41,194.63,182.41z"/>
<path d="M196.05,287.2c0.55-0.55,0.59-1.71,1.99-1.46c-0.58,0.68-1.08,1.28-1.58,1.87C196.32,287.48,196.19,287.34,196.05,287.2z"/>
<path d="M310.8,307.21c-0.41,0.3-0.68,0.64-0.86,0.6c-0.27-0.06-0.47-0.39-0.71-0.6c0.2-0.21,0.4-0.59,0.6-0.58
	C310.1,306.62,310.36,306.92,310.8,307.21z"/>
<path class="st0" d="M173.38,179.51c1.43,2.26,2.63,4.13,3.8,6.02c0.5,0.81,0.95,1.64,1.45,2.51c-0.4,0.25-0.77,0.41-1.05,0.67
	c-0.86,0.78-1.68,0.69-2.36-0.17c-0.67-0.85-1.32-0.82-2.09-0.19c-0.28,0.22-0.58,0.46-0.91,0.57c-0.36,0.12-0.96,0.27-1.13,0.09
	c-0.39-0.41-0.95-1.13-0.81-1.51C171.19,184.9,172.25,182.37,173.38,179.51z"/>
<path class="st0" d="M208.95,192.76c0.67,0.02,1.08,0.49,1.1,1.35c0.02,1-0.63,1.85-1.44,1.89c-0.8,0.04-1.53-0.79-1.56-1.78
	C207.03,193.39,207.74,192.77,208.95,192.76z M208.66,195.44c0.27-0.56,0.53-0.85,0.5-1.09c-0.04-0.27-0.34-0.51-0.52-0.77
	c-0.26,0.24-0.69,0.46-0.72,0.73C207.89,194.56,208.26,194.87,208.66,195.44z"/>
<path d="M208.66,195.44c-0.39-0.57-0.77-0.88-0.74-1.14c0.03-0.27,0.46-0.49,0.72-0.73c0.19,0.26,0.49,0.5,0.52,0.77
	C209.19,194.59,208.93,194.88,208.66,195.44z"/>
<path d="M290.63,291.89c-0.41,0.3-0.68,0.64-0.86,0.6c-0.27-0.06-0.47-0.39-0.71-0.6c0.2-0.21,0.4-0.59,0.6-0.58
	C289.93,291.3,290.2,291.6,290.63,291.89z"/>
</svg>
